<svg xmlns="http://www.w3.org/2000/svg" viewBox="0 0 64 64" fill="none" role="img" aria-label="MBBS WAALA">
  <defs>
    <linearGradient id="bg" x1="0" y1="0" x2="1" y2="1">
      <stop offset="0%" stop-color="#1E88E5"/>
      <stop offset="100%" stop-color="#0D47A1"/>
    </linearGradient>
  </defs>
  <rect width="64" height="64" rx="16" fill="url(#bg)"/>
  <circle cx="22" cy="18" r="4" fill="#fff"/>
  <circle cx="42" cy="18" r="4" fill="#fff"/>
  <path d="M22 22c0 8-3 13-8 16" stroke="#fff" stroke-width="3" stroke-linecap="round"/>
  <path d="M42 22c0 8 0 11-4 15" stroke="#fff" stroke-width="3" stroke-linecap="round"/>
  <path d="M32 28c0 8-2 12-7 15" stroke="#fff" stroke-width="3" stroke-linecap="round"/>
  <circle cx="22" cy="46" r="3" fill="#fff"/>
  <path d="M25 20c5 10 14 10 19 0" stroke="#fff" stroke-width="3" stroke-linecap="round"/>
  <rect x="28" y="10" width="14" height="11" rx="3.5" fill="#FF4081"/>
  <path d="M32 21l3 5 3-5H32z" fill="#FF4081"/>
  <path d="M31 14.2c1.1-1.3 3.2-1.3 4.2 0 1.1 1.3.3 3.2-1.4 4.6-.5.4-1.1.8-1.7 1.1-.6-.3-1.2-.7-1.7-1.1-1.7-1.4-2.5-3.3-1.4-4.6z" fill="#fff"/>
</svg>
