<svg xmlns="http://www.w3.org/2000/svg" viewBox="0 0 300 56" fill="none">
  <g transform="translate(0,2)">
    <path d="M112 4 C96 4 84 14 84 28 c0 8 4 15 10 19" stroke="#5B9FE8" stroke-width="4.5" stroke-linecap="round" fill="none"/>
    <path d="M188 4 C204 4 216 14 216 28 c0 8-4 15-10 19" stroke="#5B9FE8" stroke-width="4.5" stroke-linecap="round" fill="none"/>
    <path d="M150 30 c0 12-4 20-12 26" stroke="#5B9FE8" stroke-width="4" stroke-linecap="round" fill="none"/>
    <circle cx="132" cy="54" r="4" fill="#5B9FE8"/>
    <circle cx="90" cy="6" r="5.5" fill="#5B9FE8"/>
    <circle cx="210" cy="6" r="5.5" fill="#5B9FE8"/>
    <rect x="138" y="0" width="22" height="17" rx="5" fill="#FF5C93"/>
    <path d="M146 17l3 6 3-6" fill="#FF5C93"/>
    <rect x="149" y="5" width="20" height="15" rx="5" fill="#FF8FB3"/>
    <path d="M144.5 6.5c1.6-1.9 4.8-1.9 6.3 0 1.6 1.9.4 4.6-2.1 6.7-.9.7-2 1.4-3.15 1.9-1.15-.5-2.25-1.2-3.15-1.9-2.5-2.1-3.7-4.8-2.1-6.7z" fill="#fff"/>
    <path d="M156 10.5h7.5M156 14.5h5.5" stroke="#fff" stroke-width="1.6" stroke-linecap="round"/>
  </g>
  <text x="4" y="40" font-family="Arial Black, Arial, Helvetica, sans-serif" font-size="28" font-weight="900" fill="#5B9FE8" letter-spacing="-0.4">MBBS</text>
  <text x="168" y="40" font-family="Arial Black, Arial, Helvetica, sans-serif" font-size="28" font-weight="900" fill="#FF5C93" letter-spacing="-0.4">WAALA</text>
</svg>
