<svg xmlns="http://www.w3.org/2000/svg" viewBox="0 0 96 96" fill="none" role="img" aria-label="MBBS Wala">
  <path d="M18 58 C18 30 38 16 48 16 C58 16 78 30 78 58" stroke="#1E88E5" stroke-width="7" stroke-linecap="round" fill="none"/>
  <circle cx="18" cy="58" r="8" fill="#1E88E5"/>
  <circle cx="18" cy="58" r="3.5" fill="#fff"/>
  <circle cx="78" cy="58" r="8" fill="#1E88E5"/>
  <circle cx="78" cy="58" r="3.5" fill="#fff"/>
  <path d="M48 58 C48 70 42 78 36 84" stroke="#1E88E5" stroke-width="6" stroke-linecap="round" fill="none"/>
  <circle cx="34" cy="86" r="5" fill="#1E88E5"/>
  <rect x="40" y="10" width="28" height="20" rx="6" fill="#E91E63"/>
  <path d="M46 30 L51 30 L48 36 Z" fill="#E91E63"/>
  <rect x="52" y="16" width="24" height="18" rx="5" fill="#C2185B"/>
  <path d="M66 34 L71 34 L69 39 Z" fill="#C2185B"/>
  <path d="M50 17 C50 15 51.5 14 53 14 C54.2 14 55.2 14.7 55.7 15.8 C56.2 14.7 57.2 14 58.4 14 C59.9 14 61.4 15 61.4 17 C61.4 20.2 55.7 24.5 55.7 24.5 C55.7 24.5 50 20.2 50 17 Z" fill="#fff"/>
</svg>
